<svg width="31" height="36" viewBox="0 0 31 36" fill="none" xmlns="http://www.w3.org/2000/svg">
<path d="M2.09009 36L3.81669 29.0157C3.86212 28.7589 3.90756 28.5021 3.90756 28.194C3.90756 26.7561 2.86251 26.1912 1.95378 26.1912H0V20.9016H3.63494C5.13435 20.9016 6.54289 19.4636 6.54289 17.6148C6.54289 16.1769 5.54328 15.612 4.63455 15.612H2.27184V10.3738H6.1794C7.5425 10.3738 8.72385 9.34665 9.08735 7.85735L11.0411 0H15.5848L13.7219 7.49786C13.631 7.75464 13.5856 8.01141 13.5856 8.31954C13.5856 9.80884 14.6306 10.3738 15.5848 10.3738H18.6291C19.9922 10.3738 21.1281 9.34665 21.537 7.85735L23.4908 0H27.989L26.1261 7.49786C26.0807 7.75464 26.0353 8.01141 26.0353 8.31954C26.0353 9.80884 27.0803 10.3738 28.0345 10.3738H30.2609V15.612H26.3079C24.8085 15.612 23.3999 17.0499 23.3999 18.8987C23.3999 20.3367 24.3995 20.9016 25.3083 20.9016H28.0345V26.1912H23.7634C22.4003 26.1912 21.219 27.1669 20.8555 28.6562L19.038 36H14.4943L16.2209 29.0157C16.3118 28.7589 16.3572 28.5021 16.3572 28.194C16.3572 26.7561 15.3122 26.1912 14.358 26.1912H11.3137C9.99608 26.1912 8.81473 27.1669 8.45123 28.6562L6.58833 36H2.09009ZM10.9503 18.8987C10.9503 20.3367 11.9953 20.9016 12.904 20.9016H16.0392C17.584 20.9016 18.9926 19.4636 18.9926 17.6148C18.9926 16.1769 17.9475 15.612 17.0388 15.612H13.9036C12.4042 15.612 10.9503 17.0499 10.9503 18.8987Z" fill="#90A1B8"/>
</svg>
