<svg width="600" height="273" viewBox="0 0 600 273" fill="none" xmlns="http://www.w3.org/2000/svg">
<path d="M149.798 228.508V98.4601C149.798 94.0712 146.564 90.8374 142.175 90.8374H116.073V67.2762H206.622V90.8374H180.52C176.131 90.8374 172.897 94.0712 172.897 98.4601V228.508H149.798Z" fill="#90A1B8"/>
<path d="M245.34 229.201V205.409C243.954 209.798 242.799 216.728 239.334 220.885C233.79 227.353 224.782 229.201 216.235 229.201C214.387 229.201 212.77 229.201 211.153 228.97C200.066 228.046 192.443 222.964 188.978 212.339C188.054 209.567 187.361 206.564 187.361 204.023V136.805C187.361 134.264 188.054 131.261 188.978 128.489C192.443 117.863 200.066 112.782 211.153 111.858C212.77 111.627 214.387 111.627 216.235 111.627C224.782 111.627 233.79 113.475 239.334 119.711C242.799 124.1 243.954 131.03 245.34 135.419V111.627H270.056V229.201H245.34ZM212.308 192.243C212.308 201.02 221.317 203.792 227.092 203.792H230.326C238.872 203.792 245.34 197.324 245.34 188.547V152.281C245.34 143.503 238.872 137.036 230.326 137.036H227.092C221.317 137.036 212.308 139.808 212.308 148.585V192.243Z" fill="#90A1B8"/>
<path d="M283.006 272.628V249.759H318.579C331.745 249.759 340.985 240.52 341.216 227.353V204.254C337.982 213.494 337.52 219.731 325.97 226.198C321.351 228.739 315.345 228.277 311.88 228.277C309.801 228.277 307.953 228.277 306.105 228.046C295.249 227.122 287.857 222.04 284.392 211.646C283.468 209.105 283.006 206.102 283.006 203.561V136.805C283.006 134.264 283.468 131.261 284.392 128.72C287.857 118.325 295.249 113.475 306.105 112.32C307.722 112.089 309.57 112.089 311.187 112.089C331.514 112.089 336.596 119.942 341.216 140.039V112.089H364.546V226.198C364.546 246.295 357.847 267.315 337.751 271.704C335.21 272.397 332.9 272.628 330.59 272.628H283.006ZM306.336 191.781C306.336 201.251 316.269 204.254 322.044 204.254H325.508C334.517 204.254 341.216 197.555 341.216 188.316V152.281C341.216 143.041 334.517 136.112 325.508 136.112H322.044C316.269 136.112 306.336 139.115 306.336 148.585V191.781Z" fill="#90A1B8"/>
<path d="M380.681 272.628V249.759H416.254C429.42 249.759 438.66 240.52 438.891 227.353V204.254C435.657 213.494 435.195 219.731 423.645 226.198C419.026 228.739 413.02 228.277 409.555 228.277C407.476 228.277 405.628 228.277 403.78 228.046C392.924 227.122 385.532 222.04 382.067 211.646C381.143 209.105 380.681 206.102 380.681 203.561V136.805C380.681 134.264 381.143 131.261 382.067 128.72C385.532 118.325 392.924 113.475 403.78 112.32C405.397 112.089 407.245 112.089 408.862 112.089C429.189 112.089 434.271 119.942 438.891 140.039V112.089H462.221V226.198C462.221 246.295 455.522 267.315 435.426 271.704C432.885 272.397 430.575 272.628 428.265 272.628H380.681ZM404.011 191.781C404.011 201.251 413.944 204.254 419.719 204.254H423.183C432.192 204.254 438.891 197.555 438.891 188.316V152.281C438.891 143.041 432.192 136.112 423.183 136.112H419.719C413.944 136.112 404.011 139.115 404.011 148.585V191.781Z" fill="#90A1B8"/>
<path d="M478.125 228.508V67.2762H501.455V228.508H478.125Z" fill="#90A1B8"/>
<path d="M542.097 173.07V192.474C542.097 204.947 552.492 207.488 561.038 207.488C566.813 207.488 576.977 204.716 576.977 195.938V188.316H599.845V204.254C599.845 206.795 599.152 209.567 598.459 212.108C595.225 223.426 587.14 229.201 575.129 229.201H541.866C539.556 229.201 536.784 228.739 534.243 228.046C522.925 224.581 517.381 216.497 517.381 204.254V136.574C517.381 124.331 522.925 116.246 534.243 112.782C536.784 112.089 539.556 111.627 541.866 111.627H575.129C587.14 111.627 595.225 117.401 598.459 128.72C599.152 131.261 599.845 134.033 599.845 136.574V173.07H542.097ZM542.097 149.278C542.097 152.512 544.407 154.822 547.641 154.822H569.585C572.588 154.822 575.129 152.512 575.129 149.278V140.731C575.129 131.954 565.889 129.182 560.114 129.182H556.88C548.334 129.182 542.097 135.65 542.097 144.427V149.278Z" fill="#90A1B8"/>
<path d="M6.94015 119.538L12.6733 96.3466C12.8242 95.494 12.9751 94.6414 12.9751 93.6182C12.9751 88.8435 9.50498 86.9677 6.48753 86.9677H0V69.4037H12.0698C17.0486 69.4037 21.7257 64.629 21.7257 58.4901C21.7257 53.7154 18.4065 51.8396 15.389 51.8396H7.54364V34.446H20.5187C25.0449 34.446 28.9676 31.0355 30.1745 26.0903L36.6621 0H51.7493L45.5636 24.8967C45.2618 25.7493 45.1109 26.6019 45.1109 27.625C45.1109 32.5703 48.581 34.446 51.7493 34.446H61.8578C66.384 34.446 70.1558 31.0355 71.5137 26.0903L78.0012 0H92.9376L86.7518 24.8967C86.6009 25.7493 86.4501 26.6019 86.4501 27.625C86.4501 32.5703 89.9201 34.446 93.0885 34.446H100.481V51.8396H87.3553C82.3765 51.8396 77.6994 56.6143 77.6994 62.7532C77.6994 67.5279 81.0186 69.4037 84.0361 69.4037H93.0885V86.9677H78.9064C74.3802 86.9677 70.4576 90.2077 69.2506 95.1529L63.2157 119.538H48.1284L53.8616 96.3466C54.1633 95.494 54.3142 94.6414 54.3142 93.6182C54.3142 88.8435 50.8441 86.9677 47.6758 86.9677H37.5673C33.192 86.9677 29.2693 90.2077 28.0623 95.1529L21.8765 119.538H6.94015ZM36.3603 62.7532C36.3603 67.5279 39.8304 69.4037 42.8479 69.4037H53.2581C58.3877 69.4037 63.0648 64.629 63.0648 58.4901C63.0648 53.7154 59.5947 51.8396 56.5773 51.8396H46.167C41.1883 51.8396 36.3603 56.6143 36.3603 62.7532Z" fill="#90A1B8"/>
</svg>
